<mxfile host="Electron" modified="2024-01-31T17:18:56.301Z" agent="Mozilla/5.0 (Windows NT 10.0; Win64; x64) AppleWebKit/537.36 (KHTML, like Gecko) draw.io/22.1.16 Chrome/120.0.6099.109 Electron/28.1.0 Safari/537.36" etag="-DulkzZ0LdazN4htz0vK" version="22.1.16" type="device">
  <diagram name="Страница — 1" id="x3ASPkyUIjZy-x1FBZUD">
    <mxGraphModel dx="6197" dy="-1598" grid="1" gridSize="10" guides="1" tooltips="1" connect="1" arrows="1" fold="1" page="1" pageScale="1" pageWidth="827" pageHeight="1169" math="0" shadow="0">
      <root>
        <mxCell id="0" />
        <mxCell id="1" parent="0" />
        <mxCell id="8_T74Xt0qUnq9rnjdWRC-100" value="Алгоритм определения точки появления" style="swimlane;whiteSpace=wrap;html=1;" vertex="1" parent="1">
          <mxGeometry x="-4710" y="2430" width="440" height="485" as="geometry" />
        </mxCell>
        <mxCell id="8_T74Xt0qUnq9rnjdWRC-101" value="" style="ellipse;whiteSpace=wrap;html=1;aspect=fixed;" vertex="1" parent="8_T74Xt0qUnq9rnjdWRC-100">
          <mxGeometry x="40" y="40" width="80" height="80" as="geometry" />
        </mxCell>
        <mxCell id="8_T74Xt0qUnq9rnjdWRC-102" style="edgeStyle=orthogonalEdgeStyle;rounded=0;orthogonalLoop=1;jettySize=auto;html=1;exitX=0.25;exitY=1;exitDx=0;exitDy=0;entryX=0.679;entryY=0.043;entryDx=0;entryDy=0;entryPerimeter=0;" edge="1" parent="8_T74Xt0qUnq9rnjdWRC-100" source="8_T74Xt0qUnq9rnjdWRC-104" target="8_T74Xt0qUnq9rnjdWRC-105">
          <mxGeometry relative="1" as="geometry">
            <mxPoint x="160" y="190" as="targetPoint" />
          </mxGeometry>
        </mxCell>
        <mxCell id="8_T74Xt0qUnq9rnjdWRC-103" value="spawnCoordinates&amp;nbsp;" style="edgeLabel;html=1;align=center;verticalAlign=middle;resizable=0;points=[];" vertex="1" connectable="0" parent="8_T74Xt0qUnq9rnjdWRC-102">
          <mxGeometry x="-0.2224" y="-3" relative="1" as="geometry">
            <mxPoint as="offset" />
          </mxGeometry>
        </mxCell>
        <mxCell id="8_T74Xt0qUnq9rnjdWRC-104" value="Мониторинг сцены" style="shape=parallelogram;perimeter=parallelogramPerimeter;whiteSpace=wrap;html=1;fixedSize=1;" vertex="1" parent="8_T74Xt0qUnq9rnjdWRC-100">
          <mxGeometry x="240" y="60" width="155" height="60" as="geometry" />
        </mxCell>
        <mxCell id="8_T74Xt0qUnq9rnjdWRC-105" value="Взять число n == случайное&amp;nbsp;от 0 до&amp;nbsp;spawnCoordinates.length&lt;br&gt;&amp;nbsp;" style="rounded=0;whiteSpace=wrap;html=1;" vertex="1" parent="8_T74Xt0qUnq9rnjdWRC-100">
          <mxGeometry x="19.43" y="200" width="200.57" height="60" as="geometry" />
        </mxCell>
        <mxCell id="8_T74Xt0qUnq9rnjdWRC-106" style="edgeStyle=orthogonalEdgeStyle;rounded=0;orthogonalLoop=1;jettySize=auto;html=1;exitX=0.5;exitY=1;exitDx=0;exitDy=0;" edge="1" parent="8_T74Xt0qUnq9rnjdWRC-100" source="8_T74Xt0qUnq9rnjdWRC-101" target="8_T74Xt0qUnq9rnjdWRC-105">
          <mxGeometry relative="1" as="geometry">
            <mxPoint x="79.42857142857156" y="169.9999999999991" as="targetPoint" />
          </mxGeometry>
        </mxCell>
        <mxCell id="8_T74Xt0qUnq9rnjdWRC-107" value="Взять n-ный элемент spawnCoordinates" style="rounded=0;whiteSpace=wrap;html=1;" vertex="1" parent="8_T74Xt0qUnq9rnjdWRC-100">
          <mxGeometry x="49.58" y="310" width="140.28" height="60" as="geometry" />
        </mxCell>
        <mxCell id="8_T74Xt0qUnq9rnjdWRC-108" style="edgeStyle=orthogonalEdgeStyle;rounded=0;orthogonalLoop=1;jettySize=auto;html=1;exitX=0.5;exitY=1;exitDx=0;exitDy=0;" edge="1" parent="8_T74Xt0qUnq9rnjdWRC-100" source="8_T74Xt0qUnq9rnjdWRC-105" target="8_T74Xt0qUnq9rnjdWRC-107">
          <mxGeometry relative="1" as="geometry">
            <mxPoint x="119" y="300" as="targetPoint" />
          </mxGeometry>
        </mxCell>
        <mxCell id="8_T74Xt0qUnq9rnjdWRC-109" value="Алгоритм появления непися" style="rounded=0;whiteSpace=wrap;html=1;" vertex="1" parent="8_T74Xt0qUnq9rnjdWRC-100">
          <mxGeometry x="59.718571428571266" y="404.9999999999991" width="120" height="60" as="geometry" />
        </mxCell>
        <mxCell id="8_T74Xt0qUnq9rnjdWRC-110" style="edgeStyle=orthogonalEdgeStyle;rounded=0;orthogonalLoop=1;jettySize=auto;html=1;exitX=0.5;exitY=1;exitDx=0;exitDy=0;" edge="1" parent="8_T74Xt0qUnq9rnjdWRC-100" source="8_T74Xt0qUnq9rnjdWRC-107" target="8_T74Xt0qUnq9rnjdWRC-109">
          <mxGeometry relative="1" as="geometry">
            <mxPoint x="599.4285714285716" y="324.9999999999991" as="targetPoint" />
          </mxGeometry>
        </mxCell>
      </root>
    </mxGraphModel>
  </diagram>
</mxfile>
